<svg width="32" height="32" viewBox="0 0 32 32" fill="none" xmlns="http://www.w3.org/2000/svg">
<path fill-rule="evenodd" clip-rule="evenodd" d="M26.1048 6.63184C27.6438 7.51127 28.7923 8.94185 29.3177 10.6348L31.3441 17.166C32.3124 20.2864 30.9938 23.6619 28.1663 25.2988L23.5003 28V24.5L22.9574 24.6807C18.4415 26.1859 13.5591 26.1859 9.04329 24.6807L8.50033 24.5V28L3.83333 25.2988C1.00594 23.6618 -0.31262 20.2863 0.6556 17.166L2.68294 10.6348C3.20831 8.94193 4.35595 7.51128 5.89486 6.63184L10.5003 4V6.5H21.5003V4L26.1048 6.63184ZM10.0003 14C8.34347 14 7.00033 15.3431 7.00033 17C7.00033 18.6569 8.34347 20 10.0003 20C11.657 19.9998 13.0003 18.6568 13.0003 17C13.0003 15.3432 11.657 14.0002 10.0003 14ZM22.0003 14C20.3435 14 19.0003 15.3431 19.0003 17C19.0003 18.6569 20.3435 20 22.0003 20C23.657 19.9998 25.0003 18.6568 25.0003 17C25.0003 15.3432 23.657 14.0002 22.0003 14Z" fill="white"/>
</svg>
