<svg width="1510" height="96" viewBox="0 0 1510 96" fill="none" xmlns="http://www.w3.org/2000/svg">
<path d="M1100 96H716V12C716 5.37258 721.373 0 728 0H1100V96Z" fill="#F4F3F0"/>
<path d="M716 96H244V60C244 53.3726 249.373 48 256 48H716V96Z" fill="#F4F3F0"/>
<path d="M243.996 80C243.83 88.7602 236.76 95.8288 228 95.9951L228 96L244 96L244 80L243.996 80Z" fill="#F4F3F0"/>
<path d="M715.996 32C715.83 40.7602 708.76 47.8288 700 47.9951L700 48L716 48L716 32L715.996 32Z" fill="#F4F3F0"/>
<rect x="1510" y="96" width="410" height="96" transform="rotate(180 1510 96)" fill="#F4F3F0"/>
</svg>
