<svg width="930" height="734" viewBox="0 0 930 734" fill="none" xmlns="http://www.w3.org/2000/svg">
<path d="M485.759 91.8391C663.061 91.8394 806.792 235.365 806.792 412.41C806.792 589.456 663.061 732.981 485.759 732.982C308.457 732.982 164.726 589.456 164.726 412.41C164.726 235.364 308.457 91.8391 485.759 91.8391Z" stroke="#2C2C2C"/>
<path d="M485.759 217.315C593.763 217.315 681.316 304.664 681.316 412.411C681.315 520.158 593.763 607.506 485.759 607.506C377.755 607.506 290.203 520.158 290.202 412.411C290.202 304.664 377.755 217.315 485.759 217.315Z" stroke="#464646"/>
<g filter="url(#filter0_i_0_5)">
<circle cx="485.298" cy="412.411" r="151.31" fill="#131416"/>
</g>
<circle cx="485.298" cy="412.411" r="150.31" stroke="#9E9E9E" stroke-width="2"/>
<path d="M485.298 331.298C530.095 331.298 566.411 367.613 566.411 412.411C566.411 457.208 530.095 493.524 485.298 493.524C440.5 493.524 404.185 457.208 404.185 412.411C404.185 367.613 440.5 331.298 485.298 331.298Z" stroke="white" stroke-width="2"/>
<path d="M216.816 163.803C262.396 163.804 299.351 200.96 299.351 246.801C299.351 292.641 262.396 329.797 216.816 329.798C171.235 329.798 134.28 292.641 134.28 246.801C134.28 200.96 171.235 163.803 216.816 163.803Z" fill="#131416" stroke="#464646"/>
<path d="M216.808 202.053L245.394 248.096L216.808 264.503M216.808 202.053V235.484V264.503M216.808 202.053L188.214 248.1L216.808 264.503M216.808 269.756V292.47M216.808 269.756L245.417 253.361L216.808 292.47M216.808 269.756L188.214 253.364L216.808 292.47" stroke="white" stroke-width="2"/>
<circle cx="844.196" cy="299.851" r="85.3036" fill="#131416" stroke="#464646"/>
<path d="M838.232 343.214L807.292 266.637M838.232 343.214L881.101 291.556M838.232 343.214C838.232 341.905 841.525 311.625 843.637 296.831M807.292 266.637L866.377 278.278M807.292 266.637L843.637 296.831M866.377 278.278L881.101 291.556M866.377 278.278L843.637 296.831M881.101 291.556L843.637 296.831" stroke="white" stroke-width="2"/>
<rect x="120.44" y="586.363" width="96.2143" height="37.9881" rx="18.994" fill="#131416"/>
<rect x="120.44" y="586.363" width="96.2143" height="37.9881" rx="18.994" stroke="white"/>
<path d="M137.256 600.523H140.135C141.04 600.523 141.862 600.725 142.6 601.129C143.348 601.522 143.938 602.108 144.371 602.885C144.814 603.663 145.036 604.598 145.036 605.69C145.036 606.782 144.814 607.717 144.371 608.495C143.938 609.272 143.348 609.863 142.6 610.266C141.862 610.66 141.04 610.857 140.135 610.857H137.256V600.523ZM140.002 609.351C140.602 609.351 141.148 609.228 141.641 608.982C142.133 608.726 142.526 608.327 142.821 607.786C143.127 607.235 143.279 606.536 143.279 605.69C143.279 604.844 143.127 604.15 142.821 603.609C142.526 603.057 142.133 602.659 141.641 602.413C141.148 602.157 140.602 602.029 140.002 602.029H138.983V609.351H140.002ZM146.783 600.523H153.706V602.029H148.51V604.627H152.747V606.133H148.51V609.351H153.869V610.857H146.783V600.523ZM155.867 600.523H159.838C160.487 600.523 161.058 600.651 161.55 600.907C162.052 601.163 162.441 601.522 162.716 601.985C162.992 602.447 163.13 602.989 163.13 603.609C163.13 604.229 162.992 604.775 162.716 605.247C162.441 605.71 162.052 606.069 161.55 606.325C161.058 606.571 160.487 606.694 159.838 606.694H157.609V610.857H155.867V600.523ZM159.72 605.188C160.231 605.188 160.635 605.05 160.93 604.775C161.225 604.489 161.373 604.101 161.373 603.609C161.373 603.117 161.225 602.733 160.93 602.457C160.635 602.172 160.231 602.029 159.72 602.029H157.609V605.188H159.72ZM168.361 610.975C167.524 610.975 166.791 610.763 166.161 610.34C165.541 609.907 165.064 609.292 164.729 608.495C164.395 607.698 164.227 606.763 164.227 605.69C164.227 604.617 164.395 603.682 164.729 602.885C165.064 602.088 165.541 601.478 166.161 601.055C166.791 600.622 167.524 600.405 168.361 600.405C169.197 600.405 169.925 600.622 170.545 601.055C171.175 601.478 171.658 602.088 171.992 602.885C172.327 603.682 172.494 604.617 172.494 605.69C172.494 606.763 172.327 607.698 171.992 608.495C171.658 609.292 171.175 609.907 170.545 610.34C169.925 610.763 169.197 610.975 168.361 610.975ZM168.361 609.469C169.119 609.469 169.704 609.134 170.117 608.465C170.531 607.786 170.737 606.861 170.737 605.69C170.737 604.519 170.531 603.599 170.117 602.93C169.704 602.25 169.119 601.911 168.361 601.911C167.603 601.911 167.017 602.25 166.604 602.93C166.191 603.599 165.984 604.519 165.984 605.69C165.984 606.861 166.191 607.786 166.604 608.465C167.017 609.134 167.603 609.469 168.361 609.469ZM177.504 610.975C176.854 610.975 176.249 610.837 175.688 610.561C175.127 610.286 174.66 609.907 174.286 609.425C173.921 608.933 173.69 608.377 173.592 607.757L175.186 607.27C175.255 607.929 175.516 608.46 175.968 608.864C176.421 609.267 176.948 609.469 177.548 609.469C178.138 609.469 178.616 609.336 178.98 609.07C179.344 608.805 179.526 608.45 179.526 608.008C179.526 607.663 179.423 607.383 179.216 607.166C179.019 606.94 178.768 606.763 178.463 606.635C178.158 606.507 177.735 606.364 177.194 606.207C176.515 606.01 175.959 605.813 175.526 605.616C175.102 605.419 174.738 605.129 174.433 604.745C174.128 604.352 173.976 603.83 173.976 603.18C173.976 602.649 174.128 602.172 174.433 601.749C174.738 601.325 175.157 600.996 175.688 600.76C176.219 600.523 176.815 600.405 177.474 600.405C178.104 600.405 178.68 600.514 179.201 600.73C179.733 600.947 180.171 601.252 180.515 601.645C180.86 602.039 181.081 602.487 181.179 602.989L179.615 603.623C179.516 603.092 179.275 602.674 178.891 602.369C178.507 602.064 178.035 601.911 177.474 601.911C176.933 601.911 176.5 602.024 176.175 602.25C175.86 602.477 175.703 602.787 175.703 603.18C175.703 603.446 175.791 603.668 175.968 603.845C176.155 604.022 176.382 604.16 176.647 604.258C176.923 604.357 177.302 604.47 177.784 604.598C178.503 604.785 179.098 604.981 179.57 605.188C180.043 605.395 180.446 605.72 180.781 606.162C181.115 606.605 181.283 607.21 181.283 607.978C181.283 608.569 181.125 609.09 180.81 609.543C180.495 609.996 180.053 610.35 179.482 610.606C178.911 610.852 178.252 610.975 177.504 610.975ZM185.746 600.523H187.488V610.857H185.746V600.523ZM183.074 602.029V600.523H190.145V602.029H183.074ZM183.074 610.857V609.351H190.145V610.857H183.074ZM194.889 602.029H191.774V600.523H199.716V602.029H196.616V610.857H194.889V602.029Z" fill="white"/>
<rect x="62.3155" y="448.893" width="96.2143" height="37.9881" rx="18.994" fill="#131416"/>
<rect x="62.3155" y="448.893" width="96.2143" height="37.9881" rx="18.994" stroke="white"/>
<path d="M79.1312 463.054H82.0098C82.9152 463.054 83.737 463.255 84.4751 463.659C85.223 464.053 85.8135 464.638 86.2465 465.416C86.6893 466.193 86.9108 467.128 86.9108 468.22C86.9108 469.313 86.6893 470.248 86.2465 471.025C85.8135 471.803 85.223 472.393 84.4751 472.796C83.737 473.19 82.9152 473.387 82.0098 473.387H79.1312V463.054ZM81.877 471.881C82.4773 471.881 83.0235 471.758 83.5155 471.512C84.0076 471.256 84.4012 470.858 84.6965 470.316C85.0016 469.765 85.1541 469.067 85.1541 468.22C85.1541 467.374 85.0016 466.68 84.6965 466.139C84.4012 465.588 84.0076 465.189 83.5155 464.943C83.0235 464.687 82.4773 464.559 81.877 464.559H80.8584V471.881H81.877ZM88.658 463.054H95.5813V464.559H90.3851V467.157H94.6218V468.663H90.3851V471.881H95.7437V473.387H88.658V463.054ZM97.7419 463.054H101.713C102.362 463.054 102.933 463.182 103.425 463.437C103.927 463.693 104.316 464.053 104.591 464.515C104.867 464.978 105.005 465.519 105.005 466.139C105.005 466.759 104.867 467.305 104.591 467.777C104.316 468.24 103.927 468.599 103.425 468.855C102.933 469.101 102.362 469.224 101.713 469.224H99.4838V473.387H97.7419V463.054ZM101.595 467.718C102.106 467.718 102.51 467.581 102.805 467.305C103.1 467.02 103.248 466.631 103.248 466.139C103.248 465.647 103.1 465.263 102.805 464.987C102.51 464.702 102.106 464.559 101.595 464.559H99.4838V467.718H101.595ZM110.236 473.505C109.399 473.505 108.666 473.293 108.036 472.87C107.416 472.437 106.939 471.822 106.604 471.025C106.27 470.228 106.102 469.293 106.102 468.22C106.102 467.148 106.27 466.213 106.604 465.416C106.939 464.618 107.416 464.008 108.036 463.585C108.666 463.152 109.399 462.936 110.236 462.936C111.072 462.936 111.8 463.152 112.42 463.585C113.05 464.008 113.533 464.618 113.867 465.416C114.202 466.213 114.369 467.148 114.369 468.22C114.369 469.293 114.202 470.228 113.867 471.025C113.533 471.822 113.05 472.437 112.42 472.87C111.8 473.293 111.072 473.505 110.236 473.505ZM110.236 471.999C110.994 471.999 111.579 471.665 111.992 470.996C112.406 470.316 112.612 469.391 112.612 468.22C112.612 467.049 112.406 466.129 111.992 465.46C111.579 464.781 110.994 464.441 110.236 464.441C109.478 464.441 108.892 464.781 108.479 465.46C108.066 466.129 107.859 467.049 107.859 468.22C107.859 469.391 108.066 470.316 108.479 470.996C108.892 471.665 109.478 471.999 110.236 471.999ZM119.379 473.505C118.729 473.505 118.124 473.367 117.563 473.092C117.002 472.816 116.535 472.437 116.161 471.955C115.796 471.463 115.565 470.907 115.467 470.287L117.061 469.8C117.13 470.459 117.391 470.991 117.843 471.394C118.296 471.798 118.823 471.999 119.423 471.999C120.013 471.999 120.491 471.866 120.855 471.601C121.219 471.335 121.401 470.981 121.401 470.538C121.401 470.193 121.298 469.913 121.091 469.696C120.894 469.47 120.643 469.293 120.338 469.165C120.033 469.037 119.61 468.894 119.069 468.737C118.39 468.54 117.834 468.343 117.401 468.146C116.977 467.95 116.613 467.659 116.308 467.276C116.003 466.882 115.851 466.36 115.851 465.711C115.851 465.179 116.003 464.702 116.308 464.279C116.613 463.856 117.032 463.526 117.563 463.29C118.094 463.054 118.69 462.936 119.349 462.936C119.979 462.936 120.555 463.044 121.076 463.26C121.608 463.477 122.046 463.782 122.39 464.176C122.735 464.569 122.956 465.017 123.054 465.519L121.49 466.154C121.391 465.622 121.15 465.204 120.766 464.899C120.382 464.594 119.91 464.441 119.349 464.441C118.808 464.441 118.375 464.554 118.05 464.781C117.735 465.007 117.578 465.317 117.578 465.711C117.578 465.976 117.666 466.198 117.843 466.375C118.03 466.552 118.257 466.69 118.522 466.788C118.798 466.887 119.177 467 119.659 467.128C120.378 467.315 120.973 467.512 121.445 467.718C121.918 467.925 122.321 468.25 122.656 468.693C122.99 469.136 123.158 469.741 123.158 470.508C123.158 471.099 123 471.62 122.685 472.073C122.37 472.526 121.928 472.88 121.357 473.136C120.786 473.382 120.127 473.505 119.379 473.505ZM127.621 463.054H129.363V473.387H127.621V463.054ZM124.949 464.559V463.054H132.02V464.559H124.949ZM124.949 473.387V471.881H132.02V473.387H124.949ZM136.764 464.559H133.649V463.054H141.591V464.559H138.491V473.387H136.764V464.559Z" fill="white"/>
<rect x="0.5" y="525.47" width="96.2143" height="37.9881" rx="18.994" fill="#131416"/>
<rect x="0.5" y="525.47" width="96.2143" height="37.9881" rx="18.994" stroke="white"/>
<path d="M17.3157 539.631H20.1943C21.0997 539.631 21.9214 539.833 22.6595 540.236C23.4074 540.63 23.9979 541.215 24.4309 541.993C24.8738 542.77 25.0952 543.705 25.0952 544.797C25.0952 545.89 24.8738 546.825 24.4309 547.602C23.9979 548.38 23.4074 548.97 22.6595 549.374C21.9214 549.767 21.0997 549.964 20.1943 549.964H17.3157V539.631ZM20.0614 548.458C20.6617 548.458 21.2079 548.335 21.7 548.089C22.192 547.833 22.5857 547.435 22.8809 546.894C23.186 546.343 23.3385 545.644 23.3385 544.797C23.3385 543.951 23.186 543.257 22.8809 542.716C22.5857 542.165 22.192 541.766 21.7 541.52C21.2079 541.264 20.6617 541.136 20.0614 541.136H19.0428V548.458H20.0614ZM26.8424 539.631H33.7658V541.136H28.5696V543.735H32.8062V545.24H28.5696V548.458H33.9281V549.964H26.8424V539.631ZM35.9263 539.631H39.8973C40.5468 539.631 41.1176 539.759 41.6096 540.015C42.1115 540.27 42.5003 540.63 42.7758 541.092C43.0514 541.555 43.1892 542.096 43.1892 542.716C43.1892 543.336 43.0514 543.882 42.7758 544.355C42.5003 544.817 42.1115 545.176 41.6096 545.432C41.1176 545.678 40.5468 545.801 39.8973 545.801H37.6682V549.964H35.9263V539.631ZM39.7792 544.296C40.2909 544.296 40.6944 544.158 40.9896 543.882C41.2849 543.597 41.4325 543.208 41.4325 542.716C41.4325 542.224 41.2849 541.84 40.9896 541.565C40.6944 541.279 40.2909 541.136 39.7792 541.136H37.6682V544.296H39.7792ZM48.4202 550.082C47.5837 550.082 46.8505 549.871 46.2207 549.447C45.6007 549.014 45.1234 548.399 44.7887 547.602C44.4541 546.805 44.2868 545.87 44.2868 544.797C44.2868 543.725 44.4541 542.79 44.7887 541.993C45.1234 541.196 45.6007 540.585 46.2207 540.162C46.8505 539.729 47.5837 539.513 48.4202 539.513C49.2567 539.513 49.9849 539.729 50.6049 540.162C51.2348 540.585 51.717 541.196 52.0516 541.993C52.3862 542.79 52.5535 543.725 52.5535 544.797C52.5535 545.87 52.3862 546.805 52.0516 547.602C51.717 548.399 51.2348 549.014 50.6049 549.447C49.9849 549.871 49.2567 550.082 48.4202 550.082ZM48.4202 548.576C49.178 548.576 49.7635 548.242 50.1768 547.573C50.5902 546.894 50.7968 545.969 50.7968 544.797C50.7968 543.626 50.5902 542.706 50.1768 542.037C49.7635 541.358 49.178 541.018 48.4202 541.018C47.6624 541.018 47.0768 541.358 46.6635 542.037C46.2502 542.706 46.0435 543.626 46.0435 544.797C46.0435 545.969 46.2502 546.894 46.6635 547.573C47.0768 548.242 47.6624 548.576 48.4202 548.576ZM57.5631 550.082C56.9136 550.082 56.3083 549.944 55.7474 549.669C55.1864 549.393 54.719 549.014 54.345 548.532C53.9809 548.04 53.7496 547.484 53.6512 546.864L55.2455 546.377C55.3144 547.036 55.5752 547.568 56.0279 547.971C56.4806 548.375 57.0071 548.576 57.6074 548.576C58.1979 548.576 58.6752 548.444 59.0393 548.178C59.4034 547.912 59.5855 547.558 59.5855 547.115C59.5855 546.771 59.4822 546.49 59.2755 546.274C59.0787 546.047 58.8277 545.87 58.5226 545.742C58.2175 545.614 57.7944 545.472 57.2531 545.314C56.5741 545.117 56.018 544.92 55.585 544.724C55.1618 544.527 54.7977 544.236 54.4926 543.853C54.1875 543.459 54.035 542.937 54.035 542.288C54.035 541.756 54.1875 541.279 54.4926 540.856C54.7977 540.433 55.216 540.103 55.7474 539.867C56.2788 539.631 56.8742 539.513 57.5336 539.513C58.1634 539.513 58.7391 539.621 59.2607 539.837C59.7922 540.054 60.2301 540.359 60.5745 540.753C60.919 541.146 61.1404 541.594 61.2388 542.096L59.6741 542.731C59.5756 542.199 59.3345 541.781 58.9507 541.476C58.5669 541.171 58.0945 541.018 57.5336 541.018C56.9923 541.018 56.5593 541.132 56.2345 541.358C55.9196 541.584 55.7622 541.894 55.7622 542.288C55.7622 542.554 55.8507 542.775 56.0279 542.952C56.2148 543.129 56.4412 543.267 56.7069 543.366C56.9825 543.464 57.3614 543.577 57.8436 543.705C58.562 543.892 59.1574 544.089 59.6298 544.296C60.1022 544.502 60.5056 544.827 60.8402 545.27C61.1749 545.713 61.3422 546.318 61.3422 547.086C61.3422 547.676 61.1847 548.198 60.8698 548.65C60.5549 549.103 60.112 549.457 59.5412 549.713C58.9704 549.959 58.311 550.082 57.5631 550.082ZM65.8056 539.631H67.5475V549.964H65.8056V539.631ZM63.1336 541.136V539.631H70.2046V541.136H63.1336ZM63.1336 549.964V548.458H70.2046V549.964H63.1336ZM74.9485 541.136H71.8337V539.631H79.7756V541.136H76.6756V549.964H74.9485V541.136Z" fill="white"/>
<path d="M96.875 544.345H244.955M244.955 544.345V596.012C244.955 601.107 240.825 605.238 235.729 605.238H216.815M244.955 544.345V467.768M158.69 467.768H244.955M244.955 467.768V422.56C244.955 417.464 249.086 413.333 254.182 413.333H324.762M324.762 413.333L316.458 405.03M324.762 413.333L316.458 421.637" stroke="white"/>
<circle cx="106.101" cy="544.345" r="3.69048" fill="white"/>
<circle cx="226.042" cy="605.238" r="3.69048" fill="white"/>
<circle cx="167.917" cy="467.768" r="3.69048" fill="white"/>
<rect x="737.673" y="448.893" width="112.821" height="37.9881" rx="18.994" fill="#131416"/>
<rect x="737.673" y="448.893" width="112.821" height="37.9881" rx="18.994" stroke="white"/>
<circle cx="758.393" cy="467.887" r="4.6131" fill="#EA7F6F"/>
<path d="M771.095 463.054H773.974C774.879 463.054 775.701 463.255 776.439 463.659C777.187 464.053 777.778 464.638 778.211 465.416C778.654 466.193 778.875 467.128 778.875 468.22C778.875 469.313 778.654 470.248 778.211 471.025C777.778 471.803 777.187 472.393 776.439 472.796C775.701 473.19 774.879 473.387 773.974 473.387H771.095V463.054ZM773.841 471.881C774.441 471.881 774.988 471.758 775.48 471.512C775.972 471.256 776.365 470.858 776.661 470.316C776.966 469.765 777.118 469.067 777.118 468.22C777.118 467.374 776.966 466.68 776.661 466.139C776.365 465.588 775.972 465.189 775.48 464.943C774.988 464.687 774.441 464.559 773.841 464.559H772.823V471.881H773.841ZM780.622 463.054H787.545V464.559H782.349V467.157H786.586V468.663H782.349V471.881H787.708V473.387H780.622V463.054ZM789.706 463.054H793.677C794.327 463.054 794.897 463.182 795.389 463.437C795.891 463.693 796.28 464.053 796.556 464.515C796.831 464.978 796.969 465.519 796.969 466.139C796.969 466.759 796.831 467.305 796.556 467.777C796.28 468.24 795.891 468.599 795.389 468.855C794.897 469.101 794.327 469.224 793.677 469.224H791.448V473.387H789.706V463.054ZM793.559 467.718C794.071 467.718 794.474 467.581 794.769 467.305C795.065 467.02 795.212 466.631 795.212 466.139C795.212 465.647 795.065 465.263 794.769 464.987C794.474 464.702 794.071 464.559 793.559 464.559H791.448V467.718H793.559ZM802.2 473.505C801.363 473.505 800.63 473.293 800 472.87C799.38 472.437 798.903 471.822 798.568 471.025C798.234 470.228 798.067 469.293 798.067 468.22C798.067 467.148 798.234 466.213 798.568 465.416C798.903 464.618 799.38 464.008 800 463.585C800.63 463.152 801.363 462.936 802.2 462.936C803.036 462.936 803.765 463.152 804.385 463.585C805.015 464.008 805.497 464.618 805.831 465.416C806.166 466.213 806.333 467.148 806.333 468.22C806.333 469.293 806.166 470.228 805.831 471.025C805.497 471.822 805.015 472.437 804.385 472.87C803.765 473.293 803.036 473.505 802.2 473.505ZM802.2 471.999C802.958 471.999 803.543 471.665 803.957 470.996C804.37 470.316 804.577 469.391 804.577 468.22C804.577 467.049 804.37 466.129 803.957 465.46C803.543 464.781 802.958 464.441 802.2 464.441C801.442 464.441 800.857 464.781 800.443 465.46C800.03 466.129 799.823 467.049 799.823 468.22C799.823 469.391 800.03 470.316 800.443 470.996C800.857 471.665 801.442 471.999 802.2 471.999ZM811.343 473.505C810.693 473.505 810.088 473.367 809.527 473.092C808.966 472.816 808.499 472.437 808.125 471.955C807.761 471.463 807.529 470.907 807.431 470.287L809.025 469.8C809.094 470.459 809.355 470.991 809.808 471.394C810.26 471.798 810.787 471.999 811.387 471.999C811.978 471.999 812.455 471.866 812.819 471.601C813.183 471.335 813.365 470.981 813.365 470.538C813.365 470.193 813.262 469.913 813.055 469.696C812.858 469.47 812.607 469.293 812.302 469.165C811.997 469.037 811.574 468.894 811.033 468.737C810.354 468.54 809.798 468.343 809.365 468.146C808.942 467.95 808.577 467.659 808.272 467.276C807.967 466.882 807.815 466.36 807.815 465.711C807.815 465.179 807.967 464.702 808.272 464.279C808.577 463.856 808.996 463.526 809.527 463.29C810.059 463.054 810.654 462.936 811.313 462.936C811.943 462.936 812.519 463.044 813.04 463.26C813.572 463.477 814.01 463.782 814.354 464.176C814.699 464.569 814.92 465.017 815.019 465.519L813.454 466.154C813.355 465.622 813.114 465.204 812.73 464.899C812.347 464.594 811.874 464.441 811.313 464.441C810.772 464.441 810.339 464.554 810.014 464.781C809.699 465.007 809.542 465.317 809.542 465.711C809.542 465.976 809.63 466.198 809.808 466.375C809.995 466.552 810.221 466.69 810.487 466.788C810.762 466.887 811.141 467 811.623 467.128C812.342 467.315 812.937 467.512 813.409 467.718C813.882 467.925 814.285 468.25 814.62 468.693C814.955 469.136 815.122 469.741 815.122 470.508C815.122 471.099 814.964 471.62 814.649 472.073C814.335 472.526 813.892 472.88 813.321 473.136C812.75 473.382 812.091 473.505 811.343 473.505ZM819.585 463.054H821.327V473.387H819.585V463.054ZM816.913 464.559V463.054H823.984V464.559H816.913ZM816.913 473.387V471.881H823.984V473.387H816.913ZM828.728 464.559H825.613V463.054H833.555V464.559H830.455V473.387H828.728V464.559Z" fill="white"/>
<rect x="682.315" y="506.095" width="224.214" height="37.9881" rx="7.80357" fill="#131416"/>
<rect x="682.315" y="506.095" width="224.214" height="37.9881" rx="7.80357" stroke="#EA7F6F"/>
<path d="M699.485 520.256H703.456C704.106 520.256 704.677 520.384 705.169 520.64C705.671 520.895 706.059 521.255 706.335 521.717C706.611 522.18 706.748 522.721 706.748 523.341C706.748 523.961 706.611 524.507 706.335 524.98C706.059 525.442 705.671 525.801 705.169 526.057C704.677 526.303 704.106 526.426 703.456 526.426H701.227V530.589H699.485V520.256ZM703.338 524.921C703.85 524.921 704.254 524.783 704.549 524.507C704.844 524.222 704.992 523.833 704.992 523.341C704.992 522.849 704.844 522.465 704.549 522.19C704.254 521.904 703.85 521.761 703.338 521.761H701.227V524.921H703.338ZM708.422 520.256H712.127C712.757 520.256 713.303 520.379 713.766 520.625C714.238 520.871 714.602 521.22 714.858 521.673C715.124 522.116 715.256 522.632 715.256 523.223C715.256 523.794 715.124 524.305 714.858 524.758C714.602 525.211 714.238 525.565 713.766 525.821C713.293 526.077 712.747 526.205 712.127 526.205H710.164V530.589H708.436L708.422 520.256ZM711.655 525.673L713.382 525.496L716.231 530.589H714.297L711.655 525.673ZM711.891 524.684C712.412 524.684 712.816 524.556 713.101 524.301C713.396 524.045 713.544 523.685 713.544 523.223C713.544 522.77 713.396 522.416 713.101 522.16C712.816 521.894 712.412 521.761 711.891 521.761H710.164V524.684H711.891ZM721.108 530.707C720.271 530.707 719.538 530.496 718.908 530.072C718.288 529.639 717.811 529.024 717.476 528.227C717.141 527.43 716.974 526.495 716.974 525.422C716.974 524.35 717.141 523.415 717.476 522.618C717.811 521.821 718.288 521.21 718.908 520.787C719.538 520.354 720.271 520.138 721.108 520.138C721.944 520.138 722.672 520.354 723.292 520.787C723.922 521.21 724.404 521.821 724.739 522.618C725.074 523.415 725.241 524.35 725.241 525.422C725.241 526.495 725.074 527.43 724.739 528.227C724.404 529.024 723.922 529.639 723.292 530.072C722.672 530.496 721.944 530.707 721.108 530.707ZM721.108 529.201C721.865 529.201 722.451 528.867 722.864 528.198C723.278 527.519 723.484 526.594 723.484 525.422C723.484 524.251 723.278 523.331 722.864 522.662C722.451 521.983 721.865 521.643 721.108 521.643C720.35 521.643 719.764 521.983 719.351 522.662C718.938 523.331 718.731 524.251 718.731 525.422C718.731 526.594 718.938 527.519 719.351 528.198C719.764 528.867 720.35 529.201 721.108 529.201ZM730.236 530.707C729.399 530.707 728.666 530.496 728.036 530.072C727.416 529.639 726.939 529.024 726.604 528.227C726.27 527.43 726.102 526.495 726.102 525.422C726.102 524.35 726.27 523.415 726.604 522.618C726.939 521.821 727.416 521.21 728.036 520.787C728.666 520.354 729.399 520.138 730.236 520.138C731.072 520.138 731.8 520.354 732.42 520.787C733.05 521.21 733.532 521.821 733.867 522.618C734.202 523.415 734.369 524.35 734.369 525.422C734.369 526.495 734.202 527.43 733.867 528.227C733.532 529.024 733.05 529.639 732.42 530.072C731.8 530.496 731.072 530.707 730.236 530.707ZM730.236 529.201C730.993 529.201 731.579 528.867 731.992 528.198C732.406 527.519 732.612 526.594 732.612 525.422C732.612 524.251 732.406 523.331 731.992 522.662C731.579 521.983 730.993 521.643 730.236 521.643C729.478 521.643 728.892 521.983 728.479 522.662C728.066 523.331 727.859 524.251 727.859 525.422C727.859 526.594 728.066 527.519 728.479 528.198C728.892 528.867 729.478 529.201 730.236 529.201ZM735.939 520.256H743.069V521.761H737.666V524.478H742.124V525.983H737.666V530.589H735.939V520.256ZM757.62 530.707C756.784 530.707 756.05 530.496 755.421 530.072C754.801 529.639 754.323 529.024 753.989 528.227C753.654 527.43 753.487 526.495 753.487 525.422C753.487 524.35 753.654 523.415 753.989 522.618C754.323 521.821 754.801 521.21 755.421 520.787C756.05 520.354 756.784 520.138 757.62 520.138C758.457 520.138 759.185 520.354 759.805 520.787C760.435 521.21 760.917 521.821 761.252 522.618C761.586 523.415 761.753 524.35 761.753 525.422C761.753 526.495 761.586 527.43 761.252 528.227C760.917 529.024 760.435 529.639 759.805 530.072C759.185 530.496 758.457 530.707 757.62 530.707ZM757.62 529.201C758.378 529.201 758.963 528.867 759.377 528.198C759.79 527.519 759.997 526.594 759.997 525.422C759.997 524.251 759.79 523.331 759.377 522.662C758.963 521.983 758.378 521.643 757.62 521.643C756.862 521.643 756.277 521.983 755.863 522.662C755.45 523.331 755.243 524.251 755.243 525.422C755.243 526.594 755.45 527.519 755.863 528.198C756.277 528.867 756.862 529.201 757.62 529.201ZM763.324 520.256H770.454V521.761H765.051V524.478H769.509V525.983H765.051V530.589H763.324V520.256ZM781.285 520.256H784.163C785.069 520.256 785.89 520.458 786.628 520.861C787.376 521.255 787.967 521.84 788.4 522.618C788.843 523.395 789.064 524.33 789.064 525.422C789.064 526.515 788.843 527.45 788.4 528.227C787.967 529.005 787.376 529.595 786.628 529.999C785.89 530.392 785.069 530.589 784.163 530.589H781.285V520.256ZM784.03 529.083C784.631 529.083 785.177 528.96 785.669 528.714C786.161 528.458 786.555 528.06 786.85 527.519C787.155 526.968 787.308 526.269 787.308 525.422C787.308 524.576 787.155 523.882 786.85 523.341C786.555 522.79 786.161 522.391 785.669 522.145C785.177 521.889 784.631 521.761 784.03 521.761H783.012V529.083H784.03ZM793.262 520.256H795.004V530.589H793.262V520.256ZM790.59 521.761V520.256H797.661V521.761H790.59ZM790.59 530.589V529.083H797.661V530.589H790.59ZM803.276 530.707C802.626 530.707 802.021 530.569 801.46 530.294C800.899 530.018 800.432 529.639 800.058 529.157C799.694 528.665 799.462 528.109 799.364 527.489L800.958 527.002C801.027 527.661 801.288 528.193 801.741 528.596C802.193 529 802.72 529.201 803.32 529.201C803.911 529.201 804.388 529.069 804.752 528.803C805.116 528.537 805.298 528.183 805.298 527.74C805.298 527.396 805.195 527.115 804.988 526.899C804.791 526.672 804.54 526.495 804.235 526.367C803.93 526.239 803.507 526.097 802.966 525.939C802.287 525.742 801.731 525.545 801.298 525.349C800.874 525.152 800.51 524.861 800.205 524.478C799.9 524.084 799.748 523.562 799.748 522.913C799.748 522.381 799.9 521.904 800.205 521.481C800.51 521.058 800.929 520.728 801.46 520.492C801.991 520.256 802.587 520.138 803.246 520.138C803.876 520.138 804.452 520.246 804.973 520.462C805.505 520.679 805.943 520.984 806.287 521.378C806.632 521.771 806.853 522.219 806.951 522.721L805.387 523.356C805.288 522.824 805.047 522.406 804.663 522.101C804.28 521.796 803.807 521.643 803.246 521.643C802.705 521.643 802.272 521.757 801.947 521.983C801.632 522.209 801.475 522.519 801.475 522.913C801.475 523.179 801.563 523.4 801.741 523.577C801.927 523.754 802.154 523.892 802.42 523.991C802.695 524.089 803.074 524.202 803.556 524.33C804.275 524.517 804.87 524.714 805.342 524.921C805.815 525.127 806.218 525.452 806.553 525.895C806.887 526.338 807.055 526.943 807.055 527.711C807.055 528.301 806.897 528.823 806.582 529.275C806.267 529.728 805.825 530.082 805.254 530.338C804.683 530.584 804.024 530.707 803.276 530.707ZM812.404 530.707C811.754 530.707 811.149 530.569 810.588 530.294C810.027 530.018 809.56 529.639 809.186 529.157C808.822 528.665 808.59 528.109 808.492 527.489L810.086 527.002C810.155 527.661 810.416 528.193 810.869 528.596C811.321 529 811.848 529.201 812.448 529.201C813.039 529.201 813.516 529.069 813.88 528.803C814.244 528.537 814.426 528.183 814.426 527.74C814.426 527.396 814.323 527.115 814.116 526.899C813.919 526.672 813.669 526.495 813.363 526.367C813.058 526.239 812.635 526.097 812.094 525.939C811.415 525.742 810.859 525.545 810.426 525.349C810.003 525.152 809.639 524.861 809.333 524.478C809.028 524.084 808.876 523.562 808.876 522.913C808.876 522.381 809.028 521.904 809.333 521.481C809.639 521.058 810.057 520.728 810.588 520.492C811.12 520.256 811.715 520.138 812.374 520.138C813.004 520.138 813.58 520.246 814.102 520.462C814.633 520.679 815.071 520.984 815.415 521.378C815.76 521.771 815.981 522.219 816.08 522.721L814.515 523.356C814.416 522.824 814.175 522.406 813.792 522.101C813.408 521.796 812.935 521.643 812.374 521.643C811.833 521.643 811.4 521.757 811.075 521.983C810.76 522.209 810.603 522.519 810.603 522.913C810.603 523.179 810.692 523.4 810.869 523.577C811.056 523.754 811.282 523.892 811.548 523.991C811.823 524.089 812.202 524.202 812.684 524.33C813.403 524.517 813.998 524.714 814.471 524.921C814.943 525.127 815.346 525.452 815.681 525.895C816.016 526.338 816.183 526.943 816.183 527.711C816.183 528.301 816.025 528.823 815.711 529.275C815.396 529.728 814.953 530.082 814.382 530.338C813.811 530.584 813.152 530.707 812.404 530.707ZM821.517 530.707C820.681 530.707 819.948 530.496 819.318 530.072C818.698 529.639 818.22 529.024 817.886 528.227C817.551 527.43 817.384 526.495 817.384 525.422C817.384 524.35 817.551 523.415 817.886 522.618C818.22 521.821 818.698 521.21 819.318 520.787C819.948 520.354 820.681 520.138 821.517 520.138C822.354 520.138 823.082 520.354 823.702 520.787C824.332 521.21 824.814 521.821 825.149 522.618C825.483 523.415 825.651 524.35 825.651 525.422C825.651 526.495 825.483 527.43 825.149 528.227C824.814 529.024 824.332 529.639 823.702 530.072C823.082 530.496 822.354 530.707 821.517 530.707ZM821.517 529.201C822.275 529.201 822.861 528.867 823.274 528.198C823.687 527.519 823.894 526.594 823.894 525.422C823.894 524.251 823.687 523.331 823.274 522.662C822.861 521.983 822.275 521.643 821.517 521.643C820.76 521.643 820.174 521.983 819.761 522.662C819.347 523.331 819.141 524.251 819.141 525.422C819.141 526.594 819.347 527.519 819.761 528.198C820.174 528.867 820.76 529.201 821.517 529.201ZM830.896 530.707C830.119 530.707 829.405 530.51 828.756 530.117C828.106 529.713 827.59 529.113 827.206 528.316C826.822 527.519 826.63 526.554 826.63 525.422C826.63 524.291 826.827 523.326 827.221 522.529C827.614 521.732 828.136 521.137 828.785 520.743C829.435 520.339 830.139 520.138 830.896 520.138C831.94 520.138 832.796 520.438 833.465 521.038C834.144 521.638 834.557 522.46 834.705 523.503L833.081 523.872C832.973 523.174 832.732 522.628 832.358 522.234C831.984 521.84 831.497 521.643 830.896 521.643C830.395 521.643 829.952 521.796 829.568 522.101C829.194 522.406 828.904 522.844 828.697 523.415C828.49 523.976 828.387 524.645 828.387 525.422C828.387 526.2 828.49 526.874 828.697 527.445C828.904 528.006 829.194 528.439 829.568 528.744C829.952 529.049 830.395 529.201 830.896 529.201C831.477 529.201 831.949 529.019 832.314 528.655C832.678 528.281 832.919 527.765 833.037 527.105L834.69 527.489C834.474 528.503 834.036 529.295 833.376 529.866C832.727 530.427 831.9 530.707 830.896 530.707ZM838.903 520.256H840.645V530.589H838.903V520.256ZM836.231 521.761V520.256H843.302V521.761H836.231ZM836.231 530.589V529.083H843.302V530.589H836.231ZM846.51 528.153L846.658 526.662H851.146L851.293 528.153H846.51ZM846.333 530.589H844.606L848.119 520.256H849.684L853.198 530.589H851.485L848.902 522.677L846.333 530.589ZM857.174 521.761H854.059V520.256H862.001V521.761H858.901V530.589H857.174V521.761ZM866.287 520.256H868.029V530.589H866.287V520.256ZM863.615 521.761V520.256H870.686V521.761H863.615ZM863.615 530.589V529.083H870.686V530.589H863.615ZM876.286 530.707C875.45 530.707 874.717 530.496 874.087 530.072C873.467 529.639 872.989 529.024 872.655 528.227C872.32 527.43 872.153 526.495 872.153 525.422C872.153 524.35 872.32 523.415 872.655 522.618C872.989 521.821 873.467 521.21 874.087 520.787C874.717 520.354 875.45 520.138 876.286 520.138C877.123 520.138 877.851 520.354 878.471 520.787C879.101 521.21 879.583 521.821 879.918 522.618C880.252 523.415 880.42 524.35 880.42 525.422C880.42 526.495 880.252 527.43 879.918 528.227C879.583 529.024 879.101 529.639 878.471 530.072C877.851 530.496 877.123 530.707 876.286 530.707ZM876.286 529.201C877.044 529.201 877.63 528.867 878.043 528.198C878.456 527.519 878.663 526.594 878.663 525.422C878.663 524.251 878.456 523.331 878.043 522.662C877.63 521.983 877.044 521.643 876.286 521.643C875.529 521.643 874.943 521.983 874.53 522.662C874.116 523.331 873.91 524.251 873.91 525.422C873.91 526.594 874.116 527.519 874.53 528.198C874.943 528.867 875.529 529.201 876.286 529.201ZM881.68 520.256H883.422L887.511 527.725V520.256H889.149V530.589H887.407L883.318 523.12V530.589H881.68V520.256Z" fill="#EA7F6F"/>
<path d="M726.101 467.768H697.961C692.866 467.768 688.735 463.637 688.735 458.542V422.559C688.735 417.464 684.604 413.333 679.509 413.333H636.607M726.101 467.768L717.798 459.464M726.101 467.768L717.798 476.071" stroke="white"/>
<circle cx="645.833" cy="413.333" r="3.69048" fill="white"/>
<rect x="613.119" y="0.5" width="112.821" height="37.9881" rx="18.994" fill="#131416"/>
<rect x="613.119" y="0.5" width="112.821" height="37.9881" rx="18.994" stroke="white"/>
<circle cx="633.839" cy="19.494" r="4.6131" fill="#9EB85C"/>
<path d="M646.542 14.6608H649.42C650.326 14.6608 651.148 14.8626 651.886 15.266C652.634 15.6597 653.224 16.2453 653.657 17.0227C654.1 17.8002 654.321 18.7351 654.321 19.8275C654.321 20.9199 654.1 21.8548 653.657 22.6322C653.224 23.4097 652.634 24.0002 651.886 24.4037C651.148 24.7973 650.326 24.9941 649.42 24.9941H646.542V14.6608ZM649.288 23.4884C649.888 23.4884 650.434 23.3654 650.926 23.1194C651.418 22.8635 651.812 22.4649 652.107 21.9237C652.412 21.3726 652.565 20.6738 652.565 19.8275C652.565 18.9811 652.412 18.2873 652.107 17.746C651.812 17.1949 651.418 16.7964 650.926 16.5503C650.434 16.2945 649.888 16.1665 649.288 16.1665H648.269V23.4884H649.288ZM656.069 14.6608H662.992V16.1665H657.796V18.7646H662.032V20.2703H657.796V23.4884H663.154V24.9941H656.069V14.6608ZM665.152 14.6608H669.123C669.773 14.6608 670.344 14.7887 670.836 15.0446C671.338 15.3005 671.726 15.6597 672.002 16.1222C672.278 16.5848 672.415 17.126 672.415 17.746C672.415 18.366 672.278 18.9122 672.002 19.3846C671.726 19.8472 671.338 20.2064 670.836 20.4622C670.344 20.7083 669.773 20.8313 669.123 20.8313H666.894V24.9941H665.152V14.6608ZM669.005 19.3256C669.517 19.3256 669.921 19.1878 670.216 18.9122C670.511 18.6268 670.659 18.2381 670.659 17.746C670.659 17.254 670.511 16.8702 670.216 16.5946C669.921 16.3092 669.517 16.1665 669.005 16.1665H666.894V19.3256H669.005ZM677.646 25.1122C676.81 25.1122 676.077 24.9006 675.447 24.4775C674.827 24.0445 674.349 23.4294 674.015 22.6322C673.68 21.8351 673.513 20.9002 673.513 19.8275C673.513 18.7548 673.68 17.8199 674.015 17.0227C674.349 16.2256 674.827 15.6154 675.447 15.1922C676.077 14.7592 676.81 14.5427 677.646 14.5427C678.483 14.5427 679.211 14.7592 679.831 15.1922C680.461 15.6154 680.943 16.2256 681.278 17.0227C681.612 17.8199 681.78 18.7548 681.78 19.8275C681.78 20.9002 681.612 21.8351 681.278 22.6322C680.943 23.4294 680.461 24.0445 679.831 24.4775C679.211 24.9006 678.483 25.1122 677.646 25.1122ZM677.646 23.6065C678.404 23.6065 678.99 23.2719 679.403 22.6027C679.816 21.9237 680.023 20.9986 680.023 19.8275C680.023 18.6564 679.816 17.7362 679.403 17.067C678.99 16.3879 678.404 16.0484 677.646 16.0484C676.889 16.0484 676.303 16.3879 675.89 17.067C675.476 17.7362 675.27 18.6564 675.27 19.8275C675.27 20.9986 675.476 21.9237 675.89 22.6027C676.303 23.2719 676.889 23.6065 677.646 23.6065ZM686.789 25.1122C686.14 25.1122 685.534 24.9745 684.974 24.6989C684.413 24.4233 683.945 24.0445 683.571 23.5622C683.207 23.0702 682.976 22.5141 682.877 21.8941L684.472 21.407C684.541 22.0664 684.801 22.5978 685.254 23.0013C685.707 23.4048 686.233 23.6065 686.834 23.6065C687.424 23.6065 687.901 23.4737 688.265 23.2079C688.63 22.9422 688.812 22.5879 688.812 22.1451C688.812 21.8006 688.708 21.5202 688.502 21.3037C688.305 21.0773 688.054 20.9002 687.749 20.7722C687.444 20.6443 687.021 20.5016 686.479 20.3441C685.8 20.1473 685.244 19.9505 684.811 19.7537C684.388 19.5568 684.024 19.2665 683.719 18.8827C683.414 18.4891 683.261 17.9675 683.261 17.3179C683.261 16.7865 683.414 16.3092 683.719 15.886C684.024 15.4629 684.442 15.1332 684.974 14.897C685.505 14.6608 686.1 14.5427 686.76 14.5427C687.39 14.5427 687.965 14.651 688.487 14.8675C689.018 15.084 689.456 15.3891 689.801 15.7827C690.145 16.1764 690.367 16.6241 690.465 17.126L688.9 17.7608C688.802 17.2294 688.561 16.8111 688.177 16.506C687.793 16.201 687.321 16.0484 686.76 16.0484C686.218 16.0484 685.785 16.1616 685.461 16.3879C685.146 16.6143 684.988 16.9243 684.988 17.3179C684.988 17.5837 685.077 17.8051 685.254 17.9822C685.441 18.1594 685.667 18.2972 685.933 18.3956C686.209 18.494 686.587 18.6072 687.07 18.7351C687.788 18.9221 688.384 19.1189 688.856 19.3256C689.328 19.5322 689.732 19.857 690.066 20.2999C690.401 20.7427 690.568 21.3479 690.568 22.1156C690.568 22.706 690.411 23.2276 690.096 23.6803C689.781 24.133 689.338 24.4873 688.767 24.7432C688.197 24.9892 687.537 25.1122 686.789 25.1122ZM695.032 14.6608H696.774V24.9941H695.032V14.6608ZM692.36 16.1665V14.6608H699.431V16.1665H692.36ZM692.36 24.9941V23.4884H699.431V24.9941H692.36ZM704.175 16.1665H701.06V14.6608H709.002V16.1665H705.902V24.9941H704.175V16.1665Z" fill="white"/>
<rect x="613.119" y="69.6963" width="112.821" height="37.9881" rx="18.994" fill="#131416"/>
<rect x="613.119" y="69.6963" width="112.821" height="37.9881" rx="18.994" stroke="white"/>
<circle cx="633.839" cy="88.6902" r="4.6131" fill="#9EB85C"/>
<path d="M646.542 83.8571H649.42C650.326 83.8571 651.148 84.0588 651.886 84.4623C652.634 84.856 653.224 85.4415 653.657 86.219C654.1 86.9965 654.321 87.9314 654.321 89.0238C654.321 90.1161 654.1 91.0511 653.657 91.8285C653.224 92.606 652.634 93.1965 651.886 93.6C651.148 93.9936 650.326 94.1904 649.42 94.1904H646.542V83.8571ZM649.288 92.6847C649.888 92.6847 650.434 92.5617 650.926 92.3157C651.418 92.0598 651.812 91.6612 652.107 91.12C652.412 90.5688 652.565 89.8701 652.565 89.0238C652.565 88.1774 652.412 87.4836 652.107 86.9423C651.812 86.3912 651.418 85.9927 650.926 85.7466C650.434 85.4907 649.888 85.3628 649.288 85.3628H648.269V92.6847H649.288ZM656.069 83.8571H662.992V85.3628H657.796V87.9609H662.032V89.4666H657.796V92.6847H663.154V94.1904H656.069V83.8571ZM665.152 83.8571H669.123C669.773 83.8571 670.344 83.985 670.836 84.2409C671.338 84.4968 671.726 84.856 672.002 85.3185C672.278 85.7811 672.415 86.3223 672.415 86.9423C672.415 87.5623 672.278 88.1085 672.002 88.5809C671.726 89.0434 671.338 89.4027 670.836 89.6585C670.344 89.9046 669.773 90.0276 669.123 90.0276H666.894V94.1904H665.152V83.8571ZM669.005 88.5219C669.517 88.5219 669.921 88.3841 670.216 88.1085C670.511 87.8231 670.659 87.4344 670.659 86.9423C670.659 86.4503 670.511 86.0665 670.216 85.7909C669.921 85.5055 669.517 85.3628 669.005 85.3628H666.894V88.5219H669.005ZM677.646 94.3085C676.81 94.3085 676.077 94.0969 675.447 93.6738C674.827 93.2407 674.349 92.6257 674.015 91.8285C673.68 91.0314 673.513 90.0965 673.513 89.0238C673.513 87.9511 673.68 87.0161 674.015 86.219C674.349 85.4219 674.827 84.8117 675.447 84.3885C676.077 83.9555 676.81 83.739 677.646 83.739C678.483 83.739 679.211 83.9555 679.831 84.3885C680.461 84.8117 680.943 85.4219 681.278 86.219C681.612 87.0161 681.78 87.9511 681.78 89.0238C681.78 90.0965 681.612 91.0314 681.278 91.8285C680.943 92.6257 680.461 93.2407 679.831 93.6738C679.211 94.0969 678.483 94.3085 677.646 94.3085ZM677.646 92.8028C678.404 92.8028 678.99 92.4682 679.403 91.799C679.816 91.12 680.023 90.1949 680.023 89.0238C680.023 87.8527 679.816 86.9325 679.403 86.2633C678.99 85.5842 678.404 85.2447 677.646 85.2447C676.889 85.2447 676.303 85.5842 675.89 86.2633C675.476 86.9325 675.27 87.8527 675.27 89.0238C675.27 90.1949 675.476 91.12 675.89 91.799C676.303 92.4682 676.889 92.8028 677.646 92.8028ZM686.789 94.3085C686.14 94.3085 685.534 94.1707 684.974 93.8952C684.413 93.6196 683.945 93.2407 683.571 92.7585C683.207 92.2665 682.976 91.7104 682.877 91.0904L684.472 90.6033C684.541 91.2627 684.801 91.7941 685.254 92.1976C685.707 92.6011 686.233 92.8028 686.834 92.8028C687.424 92.8028 687.901 92.67 688.265 92.4042C688.63 92.1385 688.812 91.7842 688.812 91.3414C688.812 90.9969 688.708 90.7165 688.502 90.5C688.305 90.2736 688.054 90.0965 687.749 89.9685C687.444 89.8406 687.021 89.6979 686.479 89.5404C685.8 89.3436 685.244 89.1468 684.811 88.95C684.388 88.7531 684.024 88.4628 683.719 88.079C683.414 87.6853 683.261 87.1638 683.261 86.5142C683.261 85.9828 683.414 85.5055 683.719 85.0823C684.024 84.6592 684.442 84.3295 684.974 84.0933C685.505 83.8571 686.1 83.739 686.76 83.739C687.39 83.739 687.965 83.8473 688.487 84.0638C689.018 84.2803 689.456 84.5853 689.801 84.979C690.145 85.3727 690.367 85.8204 690.465 86.3223L688.9 86.9571C688.802 86.4257 688.561 86.0074 688.177 85.7023C687.793 85.3973 687.321 85.2447 686.76 85.2447C686.218 85.2447 685.785 85.3579 685.461 85.5842C685.146 85.8106 684.988 86.1206 684.988 86.5142C684.988 86.78 685.077 87.0014 685.254 87.1785C685.441 87.3557 685.667 87.4934 685.933 87.5919C686.209 87.6903 686.587 87.8034 687.07 87.9314C687.788 88.1184 688.384 88.3152 688.856 88.5219C689.328 88.7285 689.732 89.0533 690.066 89.4961C690.401 89.939 690.568 90.5442 690.568 91.3119C690.568 91.9023 690.411 92.4239 690.096 92.8766C689.781 93.3293 689.338 93.6836 688.767 93.9395C688.197 94.1855 687.537 94.3085 686.789 94.3085ZM695.032 83.8571H696.774V94.1904H695.032V83.8571ZM692.36 85.3628V83.8571H699.431V85.3628H692.36ZM692.36 94.1904V92.6847H699.431V94.1904H692.36ZM704.175 85.3628H701.06V83.8571H709.002V85.3628H705.902V94.1904H704.175V85.3628Z" fill="white"/>
<path d="M601.548 88.5713H554.494M601.548 88.5713L593.244 80.2677M601.548 88.5713L593.244 96.8749M554.494 88.5713V148.542C554.494 153.637 550.363 157.768 545.268 157.768H495.446C490.351 157.768 486.22 161.898 486.22 166.994V261.101M554.494 88.5713V28.6011C554.494 23.5056 558.625 19.3749 563.72 19.3749H601.548M601.548 19.3749L593.244 11.0713M601.548 19.3749L593.244 27.6784" stroke="white"/>
<circle cx="486.22" cy="233.422" r="3.69048" fill="white"/>
<rect x="613.119" y="131.512" width="215.214" height="37.9881" rx="7.80357" fill="#131416"/>
<rect x="613.119" y="131.512" width="215.214" height="37.9881" rx="7.80357" stroke="#9EB85C"/>
<path d="M630.289 145.673H634.26C634.91 145.673 635.48 145.801 635.972 146.057C636.474 146.312 636.863 146.672 637.139 147.134C637.414 147.597 637.552 148.138 637.552 148.758C637.552 149.378 637.414 149.924 637.139 150.397C636.863 150.859 636.474 151.218 635.972 151.474C635.48 151.72 634.91 151.843 634.26 151.843H632.031V156.006H630.289V145.673ZM634.142 150.338C634.654 150.338 635.057 150.2 635.352 149.924C635.648 149.639 635.795 149.25 635.795 148.758C635.795 148.266 635.648 147.882 635.352 147.607C635.057 147.321 634.654 147.178 634.142 147.178H632.031V150.338H634.142ZM639.225 145.673H642.931C643.56 145.673 644.107 145.796 644.569 146.042C645.042 146.288 645.406 146.637 645.662 147.09C645.927 147.533 646.06 148.049 646.06 148.64C646.06 149.211 645.927 149.722 645.662 150.175C645.406 150.628 645.042 150.982 644.569 151.238C644.097 151.494 643.551 151.622 642.931 151.622H640.967V156.006H639.24L639.225 145.673ZM642.458 151.09L644.185 150.913L647.034 156.006H645.101L642.458 151.09ZM642.694 150.101C643.216 150.101 643.619 149.973 643.905 149.718C644.2 149.462 644.348 149.102 644.348 148.64C644.348 148.187 644.2 147.833 643.905 147.577C643.619 147.311 643.216 147.178 642.694 147.178H640.967V150.101H642.694ZM651.911 156.124C651.075 156.124 650.341 155.913 649.712 155.489C649.092 155.056 648.614 154.441 648.28 153.644C647.945 152.847 647.778 151.912 647.778 150.839C647.778 149.767 647.945 148.832 648.28 148.035C648.614 147.238 649.092 146.627 649.712 146.204C650.341 145.771 651.075 145.555 651.911 145.555C652.748 145.555 653.476 145.771 654.096 146.204C654.726 146.627 655.208 147.238 655.543 148.035C655.877 148.832 656.044 149.767 656.044 150.839C656.044 151.912 655.877 152.847 655.543 153.644C655.208 154.441 654.726 155.056 654.096 155.489C653.476 155.913 652.748 156.124 651.911 156.124ZM651.911 154.618C652.669 154.618 653.254 154.284 653.668 153.615C654.081 152.936 654.288 152.011 654.288 150.839C654.288 149.668 654.081 148.748 653.668 148.079C653.254 147.4 652.669 147.06 651.911 147.06C651.153 147.06 650.568 147.4 650.154 148.079C649.741 148.748 649.534 149.668 649.534 150.839C649.534 152.011 649.741 152.936 650.154 153.615C650.568 154.284 651.153 154.618 651.911 154.618ZM661.039 156.124C660.203 156.124 659.47 155.913 658.84 155.489C658.22 155.056 657.742 154.441 657.408 153.644C657.073 152.847 656.906 151.912 656.906 150.839C656.906 149.767 657.073 148.832 657.408 148.035C657.742 147.238 658.22 146.627 658.84 146.204C659.47 145.771 660.203 145.555 661.039 145.555C661.876 145.555 662.604 145.771 663.224 146.204C663.854 146.627 664.336 147.238 664.671 148.035C665.005 148.832 665.173 149.767 665.173 150.839C665.173 151.912 665.005 152.847 664.671 153.644C664.336 154.441 663.854 155.056 663.224 155.489C662.604 155.913 661.876 156.124 661.039 156.124ZM661.039 154.618C661.797 154.618 662.383 154.284 662.796 153.615C663.209 152.936 663.416 152.011 663.416 150.839C663.416 149.668 663.209 148.748 662.796 148.079C662.383 147.4 661.797 147.06 661.039 147.06C660.281 147.06 659.696 147.4 659.283 148.079C658.869 148.748 658.663 149.668 658.663 150.839C658.663 152.011 658.869 152.936 659.283 153.615C659.696 154.284 660.281 154.618 661.039 154.618ZM666.743 145.673H673.873V147.178H668.47V149.895H672.928V151.4H668.47V156.006H666.743V145.673ZM688.424 156.124C687.587 156.124 686.854 155.913 686.224 155.489C685.604 155.056 685.127 154.441 684.792 153.644C684.458 152.847 684.29 151.912 684.29 150.839C684.29 149.767 684.458 148.832 684.792 148.035C685.127 147.238 685.604 146.627 686.224 146.204C686.854 145.771 687.587 145.555 688.424 145.555C689.26 145.555 689.989 145.771 690.609 146.204C691.238 146.627 691.721 147.238 692.055 148.035C692.39 148.832 692.557 149.767 692.557 150.839C692.557 151.912 692.39 152.847 692.055 153.644C691.721 154.441 691.238 155.056 690.609 155.489C689.989 155.913 689.26 156.124 688.424 156.124ZM688.424 154.618C689.182 154.618 689.767 154.284 690.18 153.615C690.594 152.936 690.8 152.011 690.8 150.839C690.8 149.668 690.594 148.748 690.18 148.079C689.767 147.4 689.182 147.06 688.424 147.06C687.666 147.06 687.08 147.4 686.667 148.079C686.254 148.748 686.047 149.668 686.047 150.839C686.047 152.011 686.254 152.936 686.667 153.615C687.08 154.284 687.666 154.618 688.424 154.618ZM694.127 145.673H701.257V147.178H695.854V149.895H700.312V151.4H695.854V156.006H694.127V145.673ZM713.417 153.57L713.564 152.079H718.052L718.2 153.57H713.417ZM713.24 156.006H711.513L715.026 145.673H716.591L720.104 156.006H718.392L715.808 148.094L713.24 156.006ZM724.951 156.124C724.302 156.124 723.696 155.986 723.135 155.711C722.574 155.435 722.107 155.056 721.733 154.574C721.369 154.082 721.138 153.526 721.039 152.906L722.634 152.419C722.702 153.078 722.963 153.61 723.416 154.013C723.869 154.417 724.395 154.618 724.995 154.618C725.586 154.618 726.063 154.486 726.427 154.22C726.791 153.954 726.974 153.6 726.974 153.157C726.974 152.813 726.87 152.532 726.664 152.316C726.467 152.089 726.216 151.912 725.911 151.784C725.606 151.656 725.182 151.514 724.641 151.356C723.962 151.159 723.406 150.962 722.973 150.766C722.55 150.569 722.186 150.278 721.881 149.895C721.576 149.501 721.423 148.979 721.423 148.33C721.423 147.798 721.576 147.321 721.881 146.898C722.186 146.475 722.604 146.145 723.135 145.909C723.667 145.673 724.262 145.555 724.922 145.555C725.551 145.555 726.127 145.663 726.649 145.879C727.18 146.096 727.618 146.401 727.963 146.795C728.307 147.188 728.528 147.636 728.627 148.138L727.062 148.773C726.964 148.241 726.723 147.823 726.339 147.518C725.955 147.213 725.483 147.06 724.922 147.06C724.38 147.06 723.947 147.174 723.623 147.4C723.308 147.626 723.15 147.936 723.15 148.33C723.15 148.596 723.239 148.817 723.416 148.994C723.603 149.171 723.829 149.309 724.095 149.408C724.371 149.506 724.749 149.619 725.232 149.747C725.95 149.934 726.545 150.131 727.018 150.338C727.49 150.544 727.894 150.869 728.228 151.312C728.563 151.755 728.73 152.36 728.73 153.128C728.73 153.718 728.573 154.24 728.258 154.692C727.943 155.145 727.5 155.499 726.929 155.755C726.358 156.001 725.699 156.124 724.951 156.124ZM734.079 156.124C733.43 156.124 732.825 155.986 732.264 155.711C731.703 155.435 731.235 155.056 730.861 154.574C730.497 154.082 730.266 153.526 730.167 152.906L731.762 152.419C731.831 153.078 732.091 153.61 732.544 154.013C732.997 154.417 733.523 154.618 734.124 154.618C734.714 154.618 735.191 154.486 735.556 154.22C735.92 153.954 736.102 153.6 736.102 153.157C736.102 152.813 735.998 152.532 735.792 152.316C735.595 152.089 735.344 151.912 735.039 151.784C734.734 151.656 734.311 151.514 733.769 151.356C733.09 151.159 732.534 150.962 732.101 150.766C731.678 150.569 731.314 150.278 731.009 149.895C730.704 149.501 730.551 148.979 730.551 148.33C730.551 147.798 730.704 147.321 731.009 146.898C731.314 146.475 731.732 146.145 732.264 145.909C732.795 145.673 733.39 145.555 734.05 145.555C734.68 145.555 735.255 145.663 735.777 145.879C736.308 146.096 736.746 146.401 737.091 146.795C737.435 147.188 737.657 147.636 737.755 148.138L736.19 148.773C736.092 148.241 735.851 147.823 735.467 147.518C735.083 147.213 734.611 147.06 734.05 147.06C733.509 147.06 733.076 147.174 732.751 147.4C732.436 147.626 732.278 147.936 732.278 148.33C732.278 148.596 732.367 148.817 732.544 148.994C732.731 149.171 732.957 149.309 733.223 149.408C733.499 149.506 733.878 149.619 734.36 149.747C735.078 149.934 735.674 150.131 736.146 150.338C736.618 150.544 737.022 150.869 737.356 151.312C737.691 151.755 737.858 152.36 737.858 153.128C737.858 153.718 737.701 154.24 737.386 154.692C737.071 155.145 736.628 155.499 736.057 155.755C735.487 156.001 734.827 156.124 734.079 156.124ZM743.193 156.124C742.356 156.124 741.623 155.913 740.993 155.489C740.373 155.056 739.896 154.441 739.561 153.644C739.227 152.847 739.059 151.912 739.059 150.839C739.059 149.767 739.227 148.832 739.561 148.035C739.896 147.238 740.373 146.627 740.993 146.204C741.623 145.771 742.356 145.555 743.193 145.555C744.029 145.555 744.757 145.771 745.377 146.204C746.007 146.627 746.49 147.238 746.824 148.035C747.159 148.832 747.326 149.767 747.326 150.839C747.326 151.912 747.159 152.847 746.824 153.644C746.49 154.441 746.007 155.056 745.377 155.489C744.757 155.913 744.029 156.124 743.193 156.124ZM743.193 154.618C743.951 154.618 744.536 154.284 744.949 153.615C745.363 152.936 745.569 152.011 745.569 150.839C745.569 149.668 745.363 148.748 744.949 148.079C744.536 147.4 743.951 147.06 743.193 147.06C742.435 147.06 741.849 147.4 741.436 148.079C741.023 148.748 740.816 149.668 740.816 150.839C740.816 152.011 741.023 152.936 741.436 153.615C741.849 154.284 742.435 154.618 743.193 154.618ZM752.572 156.124C751.794 156.124 751.081 155.927 750.431 155.534C749.782 155.13 749.265 154.53 748.881 153.733C748.498 152.936 748.306 151.971 748.306 150.839C748.306 149.708 748.502 148.743 748.896 147.946C749.29 147.149 749.811 146.554 750.461 146.16C751.11 145.756 751.814 145.555 752.572 145.555C753.615 145.555 754.471 145.855 755.14 146.455C755.819 147.055 756.233 147.877 756.38 148.92L754.757 149.289C754.648 148.591 754.407 148.045 754.033 147.651C753.659 147.257 753.172 147.06 752.572 147.06C752.07 147.06 751.627 147.213 751.243 147.518C750.869 147.823 750.579 148.261 750.372 148.832C750.166 149.393 750.062 150.062 750.062 150.839C750.062 151.617 750.166 152.291 750.372 152.862C750.579 153.423 750.869 153.856 751.243 154.161C751.627 154.466 752.07 154.618 752.572 154.618C753.152 154.618 753.625 154.436 753.989 154.072C754.353 153.698 754.594 153.182 754.712 152.522L756.366 152.906C756.149 153.92 755.711 154.712 755.052 155.283C754.402 155.844 753.576 156.124 752.572 156.124ZM760.578 145.673H762.32V156.006H760.578V145.673ZM757.906 147.178V145.673H764.977V147.178H757.906ZM757.906 156.006V154.5H764.977V156.006H757.906ZM768.186 153.57L768.333 152.079H772.821L772.969 153.57H768.186ZM768.009 156.006H766.282L769.795 145.673H771.36L774.873 156.006H773.161L770.577 148.094L768.009 156.006ZM778.849 147.178H775.734V145.673H783.676V147.178H780.576V156.006H778.849V147.178ZM787.963 145.673H789.704V156.006H787.963V145.673ZM785.291 147.178V145.673H792.362V147.178H785.291ZM785.291 156.006V154.5H792.362V156.006H785.291ZM797.962 156.124C797.125 156.124 796.392 155.913 795.762 155.489C795.142 155.056 794.665 154.441 794.33 153.644C793.996 152.847 793.828 151.912 793.828 150.839C793.828 149.767 793.996 148.832 794.33 148.035C794.665 147.238 795.142 146.627 795.762 146.204C796.392 145.771 797.125 145.555 797.962 145.555C798.798 145.555 799.526 145.771 800.146 146.204C800.776 146.627 801.259 147.238 801.593 148.035C801.928 148.832 802.095 149.767 802.095 150.839C802.095 151.912 801.928 152.847 801.593 153.644C801.259 154.441 800.776 155.056 800.146 155.489C799.526 155.913 798.798 156.124 797.962 156.124ZM797.962 154.618C798.719 154.618 799.305 154.284 799.718 153.615C800.132 152.936 800.338 152.011 800.338 150.839C800.338 149.668 800.132 148.748 799.718 148.079C799.305 147.4 798.719 147.06 797.962 147.06C797.204 147.06 796.618 147.4 796.205 148.079C795.792 148.748 795.585 149.668 795.585 150.839C795.585 152.011 795.792 152.936 796.205 153.615C796.618 154.284 797.204 154.618 797.962 154.618ZM803.355 145.673H805.097L809.186 153.142V145.673H810.825V156.006H809.083L804.994 148.537V156.006H803.355V145.673Z" fill="#9EB85C"/>
<defs>
<filter id="filter0_i_0_5" x="333.988" y="261.101" width="302.619" height="302.619" filterUnits="userSpaceOnUse" color-interpolation-filters="sRGB">
<feFlood flood-opacity="0" result="BackgroundImageFix"/>
<feBlend mode="normal" in="SourceGraphic" in2="BackgroundImageFix" result="shape"/>
<feColorMatrix in="SourceAlpha" type="matrix" values="0 0 0 0 0 0 0 0 0 0 0 0 0 0 0 0 0 0 127 0" result="hardAlpha"/>
<feOffset/>
<feGaussianBlur stdDeviation="13.8393"/>
<feComposite in2="hardAlpha" operator="arithmetic" k2="-1" k3="1"/>
<feColorMatrix type="matrix" values="0 0 0 0 1 0 0 0 0 1 0 0 0 0 1 0 0 0 0.2 0"/>
<feBlend mode="normal" in2="shape" result="effect1_innerShadow_0_5"/>
</filter>
</defs>
</svg>
