<svg width="1510" height="96" viewBox="0 0 1510 96" fill="none" xmlns="http://www.w3.org/2000/svg">
<path d="M410 0H794V84C794 90.6274 788.627 96 782 96H410V0Z" fill="#EAE7E1"/>
<path d="M794 0H1266V36C1266 42.6274 1260.63 48 1254 48H794V0Z" fill="#EAE7E1"/>
<path d="M1266 16C1266.17 7.23982 1273.24 0.170208 1282 0.00390485L1282 -1.39876e-06L1266 0L1266 16L1266 16Z" fill="#EAE7E1"/>
<path d="M794.004 64C794.17 55.2398 801.24 48.1702 810 48.0039L810 48L794 48L794 64L794.004 64Z" fill="#EAE7E1"/>
<rect width="410" height="96" fill="#EAE7E1"/>
</svg>
