<svg width="31" height="431" viewBox="0 0 31 431" fill="none" xmlns="http://www.w3.org/2000/svg">
<rect x="15" width="1" height="200" fill="black" fill-opacity="0.1"/>
<!-- <rect width="31" height="8" fill="#EAE7E1"/> -->
<rect y="8" width="31" height="31" rx="15.5" fill="#EAE7E1"/>
<rect x="0.5" y="8.5" width="30" height="30" rx="15" stroke="#131416" stroke-opacity="0.12"/>
<path d="M16.8477 19.0785V29.1H15.2618V21.0199C14.9747 21.225 14.6648 21.4004 14.3321 21.5463C14.004 21.6875 13.628 21.8129 13.2042 21.9222V20.5687C13.4685 20.4821 13.7237 20.391 13.9698 20.2953C14.2159 20.1996 14.4574 20.0925 14.6944 19.974C14.9359 19.8555 15.1775 19.7233 15.419 19.5775C15.6651 19.4317 15.918 19.2653 16.1778 19.0785H16.8477Z" fill="#818688"/>
<rect x="15" y="200" width="1" height="200" fill="black" fill-opacity="0.1"/>
<rect y="208" width="31" height="31" rx="15.5" fill="#EAE7E1"/>
<rect x="0.5" y="208.5" width="30" height="30" rx="15" stroke="#131416" stroke-opacity="0.12"/>
<path d="M18.3326 229.1H12.1803V228.341C12.1803 228.031 12.2236 227.742 12.3102 227.473C12.3968 227.2 12.513 226.944 12.6588 226.708C12.8046 226.466 12.9755 226.24 13.1715 226.031C13.3675 225.817 13.5771 225.611 13.8004 225.416C14.0237 225.215 14.2516 225.024 14.484 224.841C14.7164 224.654 14.9443 224.468 15.1676 224.281C15.3772 224.103 15.5686 223.93 15.7418 223.761C15.915 223.588 16.0631 223.41 16.1862 223.228C16.3092 223.046 16.4049 222.854 16.4733 222.654C16.5416 222.449 16.5758 222.228 16.5758 221.991C16.5758 221.731 16.5348 221.505 16.4528 221.314C16.3753 221.118 16.2636 220.956 16.1178 220.829C15.9765 220.696 15.8079 220.598 15.6119 220.535C15.416 220.466 15.2018 220.432 14.9694 220.432C14.5683 220.432 14.1604 220.526 13.7457 220.712C13.331 220.899 12.9323 221.18 12.5494 221.553V220.029C12.75 219.878 12.9528 219.749 13.1578 219.639C13.3629 219.525 13.5748 219.432 13.7936 219.359C14.0123 219.281 14.2425 219.224 14.484 219.188C14.7255 219.152 14.983 219.133 15.2565 219.133C15.6985 219.133 16.0996 219.193 16.4596 219.311C16.8196 219.425 17.1272 219.596 17.3824 219.824C17.6377 220.047 17.8336 220.327 17.9703 220.665C18.1116 221.002 18.1823 221.389 18.1823 221.827C18.1823 222.223 18.1321 222.581 18.0319 222.9C17.9362 223.214 17.7972 223.508 17.6149 223.782C17.4371 224.055 17.2207 224.315 16.9655 224.561C16.7102 224.807 16.4254 225.06 16.111 225.32C15.8466 225.534 15.5823 225.744 15.318 225.949C15.0582 226.149 14.8235 226.347 14.6139 226.543C14.4043 226.735 14.2334 226.929 14.1012 227.125C13.9736 227.316 13.9098 227.51 13.9098 227.706V227.74H18.3326V229.1Z" fill="#818688"/>
<rect y="400" width="31" height="31" rx="15.5" fill="#EAE7E1"/>
<rect x="0.5" y="400.5" width="30" height="30" rx="15" stroke="#131416" stroke-opacity="0.12"/>
<path d="M12.3512 420.738V419.248C12.9892 419.753 13.7093 420.006 14.5114 420.006C15.163 420.006 15.6826 419.858 16.0699 419.562C16.4619 419.266 16.6578 418.865 16.6578 418.359C16.6578 417.247 15.8079 416.691 14.108 416.691H13.3492V415.419H14.0739C15.5823 415.419 16.3365 414.895 16.3365 413.847C16.3365 412.881 15.7487 412.398 14.5729 412.398C13.9166 412.398 13.2991 412.633 12.7203 413.102V411.694C13.3857 411.32 14.1718 411.133 15.0787 411.133C15.9492 411.133 16.6464 411.352 17.1705 411.79C17.6946 412.227 17.9567 412.788 17.9567 413.471C17.9567 414.761 17.3004 415.59 15.9879 415.959V415.987C16.6943 416.055 17.2526 416.304 17.6627 416.732C18.0729 417.156 18.278 417.687 18.278 418.325C18.278 419.204 17.9476 419.915 17.2867 420.458C16.6259 420.995 15.7555 421.264 14.6754 421.264C13.7047 421.264 12.93 421.089 12.3512 420.738Z" fill="#818688"/>
</svg>
